<svg width="81" height="21" viewBox="0 0 81 21" fill="none" xmlns="http://www.w3.org/2000/svg">
<path d="M10.72 21L10.016 17.32H5.376L4.672 21H0.16L4.768 0.647999H10.592L15.328 21H10.72ZM6.016 13.992H9.344L7.68 5.384L6.016 13.992ZM27.6608 0.647999V4.008H23.9167V21H19.3408V4.008H15.6288V0.647999H27.6608ZM37.8605 0.647999H42.3725V21H37.8605V12.616H33.7645V21H29.2525V0.647999H33.7645V9.256H37.8605V0.647999ZM49.7965 17.64H55.6525V21H45.2525V0.647999H49.7965V17.64ZM61.7035 17.64H68.2315V21H57.1275V0.647999H67.9755V4.008H61.7035V8.968H67.0475V12.328H61.7035V17.64ZM80.9733 0.647999V4.008H77.2292V21H72.6533V4.008H68.9413V0.647999H80.9733Z" fill="black"/>
</svg>
